<svg width="135" height="42" viewBox="0 0 135 42" fill="none" xmlns="http://www.w3.org/2000/svg">
<rect x="0.0500488" width="134.95" height="42" rx="4" fill="#F28500"/>
<g clip-path="url(#clip0_171_774)">
<path d="M24.1307 14.0483L24.1128 14.0378L24.0715 14.0252C24.0882 14.0392 24.109 14.0473 24.1307 14.0483Z" fill="#333533"/>
<path d="M24.1395 14.0446C24.1372 14.0443 24.1349 14.0437 24.1327 14.043C24.1325 14.0445 24.1325 14.046 24.1327 14.0475C24.1351 14.0472 24.1375 14.0462 24.1395 14.0446Z" fill="#333533"/>
<path d="M24.3762 15.9053L24.4063 15.8882L24.4175 15.8819L24.4276 15.8711C24.4086 15.8793 24.3911 15.8909 24.3762 15.9053Z" fill="#333533"/>
<path d="M24.1868 14.0869L24.1574 14.0589L24.1375 14.048C24.1482 14.0669 24.1659 14.0809 24.1868 14.0869Z" fill="#333533"/>
<path d="M16.7934 32.1135C16.77 32.1237 16.7494 32.1395 16.7336 32.1597L16.7522 32.1478C16.7648 32.1362 16.7826 32.1226 16.7934 32.1135Z" fill="#333533"/>
<path d="M21.0857 31.2718C21.0857 31.2452 21.0728 31.2501 21.0759 31.3445C21.0759 31.3368 21.0791 31.3292 21.0805 31.3218C21.0822 31.305 21.0837 31.2885 21.0857 31.2718Z" fill="#333533"/>
<path d="M20.6426 32.1135C20.6191 32.1237 20.5986 32.1395 20.5828 32.1597L20.6014 32.1478C20.6139 32.1362 20.6318 32.1226 20.6426 32.1135Z" fill="#333533"/>
<path d="M13.77 32.313C13.7522 32.2975 13.7304 32.2873 13.707 32.2836C13.7259 32.2927 13.7448 32.3018 13.7574 32.3088L13.77 32.313Z" fill="#333533"/>
<path d="M13.0871 31.6612C13.0843 31.6336 13.0758 31.6069 13.0623 31.5828C13.0719 31.6079 13.0799 31.6336 13.0864 31.6597L13.0871 31.6612Z" fill="#333533"/>
<path d="M17.6571 20.0138C16.7232 20.4137 15.6634 20.867 14.2898 20.867C13.7152 20.8658 13.1433 20.787 12.5898 20.6326L13.5398 30.3862C13.5735 30.7939 13.7592 31.174 14.0601 31.4511C14.361 31.7281 14.7551 31.8819 15.1642 31.8819C15.1642 31.8819 16.5112 31.9518 16.9607 31.9518C17.4444 31.9518 18.895 31.8819 18.895 31.8819C19.304 31.8819 19.698 31.728 19.9988 31.451C20.2997 31.1739 20.4853 30.7938 20.519 30.3862L21.5365 19.6081C21.0818 19.4528 20.6229 19.3496 20.1055 19.3496C19.2108 19.3493 18.4899 19.6574 17.6571 20.0138Z" fill="#333533"/>
<path d="M9.64966 15.8508L9.66575 15.8658L9.67624 15.8722C9.66816 15.8641 9.65925 15.8569 9.64966 15.8508Z" fill="#333533"/>
<path d="M25.9303 14.9492L25.7872 14.2276C25.6588 13.5802 25.3674 12.9684 24.7029 12.7344C24.4898 12.6596 24.2481 12.6274 24.0848 12.4724C23.9214 12.3175 23.8732 12.0768 23.8354 11.8537C23.7654 11.4441 23.6997 11.0342 23.6279 10.6253C23.5661 10.2737 23.5171 9.87884 23.3559 9.55634C23.146 9.12331 22.7105 8.87007 22.2775 8.70253C22.0556 8.6197 21.8291 8.54963 21.5992 8.49266C20.5174 8.20724 19.3799 8.10231 18.2669 8.0425C16.931 7.96878 15.5915 7.99099 14.2588 8.10895C13.2668 8.1992 12.222 8.30833 11.2794 8.65146C10.9348 8.77703 10.5798 8.92778 10.3178 9.19397C9.99638 9.52101 9.89145 10.0268 10.1262 10.4346C10.293 10.7243 10.5756 10.9289 10.8754 11.0642C11.2658 11.2387 11.6736 11.3714 12.0919 11.4602C13.2567 11.7176 14.4631 11.8187 15.653 11.8617C16.9719 11.915 18.2929 11.8718 19.6055 11.7327C19.9301 11.697 20.2541 11.6542 20.5776 11.6043C20.9585 11.5459 21.2029 11.0478 21.0907 10.7008C20.9564 10.286 20.5954 10.1251 20.1872 10.1877C20.127 10.1971 20.0672 10.2059 20.0071 10.2146L19.9637 10.2209C19.8254 10.2384 19.6871 10.2547 19.5489 10.2699C19.2632 10.3007 18.9769 10.3259 18.6898 10.3454C18.0469 10.3902 17.4022 10.4108 16.758 10.4119C16.1249 10.4119 15.4914 10.3941 14.8597 10.3524C14.5715 10.3335 14.284 10.3095 13.9972 10.2804C13.8667 10.2667 13.7366 10.2524 13.6065 10.2363L13.4826 10.2206L13.4557 10.2167L13.3273 10.1982C13.065 10.1587 12.8027 10.1132 12.5431 10.0583C12.5169 10.0525 12.4935 10.0379 12.4767 10.017C12.4599 9.99605 12.4508 9.97002 12.4508 9.94319C12.4508 9.91637 12.4599 9.89034 12.4767 9.86942C12.4935 9.8485 12.5169 9.83393 12.5431 9.82812H12.548C12.7729 9.7802 12.9996 9.73928 13.2269 9.7036C13.3027 9.6917 13.3787 9.68004 13.455 9.66862H13.4571C13.5995 9.65918 13.7425 9.63364 13.8842 9.61685C15.1167 9.48865 16.3565 9.44494 17.595 9.48604C18.1963 9.50352 18.7971 9.53885 19.3957 9.59971C19.5244 9.613 19.6524 9.627 19.7804 9.64274C19.8293 9.64868 19.8787 9.65567 19.928 9.66162L20.0273 9.67597C20.317 9.7191 20.6051 9.77145 20.8916 9.83301C21.3163 9.92536 21.8616 9.95544 22.0505 10.4206C22.1107 10.5682 22.1379 10.7323 22.1712 10.8872L22.2135 11.0849C22.2146 11.0884 22.2154 11.092 22.2159 11.0957C22.316 11.5621 22.4161 12.0285 22.5164 12.4948C22.5237 12.5293 22.5239 12.5649 22.5169 12.5994C22.5099 12.6339 22.4958 12.6666 22.4756 12.6955C22.4554 12.7243 22.4294 12.7487 22.3994 12.7671C22.3694 12.7855 22.3358 12.7974 22.3009 12.8023H22.2981L22.2369 12.8107L22.1764 12.8187C21.9847 12.8437 21.7928 12.867 21.6007 12.8887C21.2222 12.9318 20.8432 12.9691 20.4636 13.0006C19.7092 13.0633 18.9533 13.1045 18.1959 13.1241C17.81 13.1343 17.4242 13.1391 17.0385 13.1384C15.5033 13.1372 13.9695 13.048 12.4445 12.8712C12.2794 12.8516 12.1143 12.8306 11.9492 12.8093C12.0772 12.8257 11.8562 12.7967 11.8114 12.7904C11.7065 12.7757 11.6015 12.7604 11.4966 12.7446C11.1444 12.6918 10.7942 12.6267 10.4427 12.5697C10.0177 12.4997 9.61128 12.5347 9.22687 12.7446C8.91133 12.9172 8.65595 13.182 8.49478 13.5036C8.32899 13.8464 8.27967 14.2196 8.20552 14.5879C8.13136 14.9562 8.01594 15.3525 8.05966 15.7306C8.15375 16.5467 8.72424 17.2098 9.54482 17.3582C10.3168 17.4981 11.0929 17.6114 11.8712 17.7079C14.9283 18.0823 18.017 18.1271 21.0837 17.8416C21.3335 17.8182 21.5828 17.7928 21.8319 17.7653C21.9097 17.7568 21.9884 17.7657 22.0622 17.7915C22.1361 17.8173 22.2033 17.8593 22.2588 17.9145C22.3144 17.9696 22.3569 18.0365 22.3832 18.1102C22.4095 18.1839 22.4191 18.2625 22.4111 18.3403L22.3335 19.0952C22.177 20.6205 22.0205 22.1456 21.864 23.6707C21.7008 25.2721 21.5365 26.8735 21.3712 28.4749C21.3245 28.9258 21.2779 29.3767 21.2313 29.8275C21.1865 30.2713 21.1802 30.7292 21.0959 31.1678C20.963 31.8575 20.4961 32.2811 19.8147 32.4361C19.1905 32.5781 18.5527 32.6527 17.9126 32.6585C17.2029 32.6624 16.4935 32.6309 15.7838 32.6347C15.0262 32.639 14.0982 32.569 13.5134 32.0051C12.9996 31.5098 12.9286 30.7344 12.8586 30.0639C12.7654 29.1762 12.6729 28.2885 12.5813 27.401L12.0671 22.466L11.7344 19.2729C11.7288 19.22 11.7232 19.1679 11.718 19.1147C11.6781 18.7338 11.4084 18.361 10.9835 18.3802C10.6197 18.3963 10.2063 18.7055 10.2489 19.1147L10.4955 21.482L11.0055 26.3789C11.1508 27.7699 11.2957 29.1611 11.4403 30.5525C11.4683 30.8191 11.4945 31.0863 11.5239 31.3528C11.6837 32.8093 12.796 33.5942 14.1734 33.8153C14.9779 33.9447 15.802 33.9713 16.6184 33.9845C17.6649 34.0014 18.7219 34.0416 19.7514 33.852C21.2768 33.5722 22.4212 32.5536 22.5846 30.9737C22.6312 30.5176 22.6778 30.0613 22.7245 29.605C22.8795 28.0958 23.0344 26.5865 23.189 25.0771L23.6948 20.1452L23.9267 17.8849C23.9383 17.7729 23.9856 17.6674 24.0617 17.5844C24.1377 17.5013 24.2386 17.4449 24.3493 17.4236C24.7854 17.3385 25.2023 17.1934 25.5126 16.8615C26.0065 16.3329 26.1048 15.6439 25.9303 14.9492ZM9.52244 15.4368C9.52908 15.4337 9.51684 15.4907 9.51159 15.5172C9.51054 15.4771 9.51264 15.4414 9.52244 15.4368ZM9.56476 15.7642C9.56826 15.7618 9.57875 15.7758 9.58959 15.7925C9.57315 15.7772 9.56301 15.7656 9.56476 15.7642ZM9.60638 15.8191C9.62142 15.8447 9.62947 15.8608 9.60638 15.8191V15.8191ZM9.68998 15.887H9.69208C9.69208 15.8894 9.69593 15.8919 9.69732 15.8943C9.695 15.8916 9.69278 15.8892 9.68998 15.887ZM24.3289 15.7856C24.1723 15.9345 23.9361 16.0038 23.7028 16.0384C21.0865 16.4267 18.432 16.6233 15.787 16.5365C13.894 16.4718 12.0209 16.2616 10.1468 15.9968C9.96315 15.9709 9.76413 15.9373 9.63786 15.802C9.40001 15.5466 9.51684 15.0325 9.57875 14.724C9.63541 14.4414 9.74384 14.0646 10.08 14.0244C10.6047 13.9629 11.214 14.1843 11.733 14.263C12.358 14.3583 12.9853 14.4347 13.6148 14.4921C16.3019 14.7369 19.034 14.6988 21.7091 14.3406C22.1967 14.2751 22.6825 14.199 23.1666 14.1122C23.5979 14.0349 24.0761 13.8898 24.3366 14.3364C24.5154 14.6407 24.5392 15.0479 24.5115 15.3917C24.503 15.5415 24.4379 15.6824 24.3289 15.7856Z" fill="#333533"/>
<path fill-rule="evenodd" clip-rule="evenodd" d="M40.1961 23.0524C40.0433 23.344 39.8332 23.5979 39.5659 23.8133C39.2986 24.029 38.9867 24.2046 38.6303 24.3397C38.2739 24.4752 37.9152 24.5662 37.5545 24.6125C37.1937 24.659 36.8436 24.655 36.5043 24.5998C36.1648 24.5449 35.876 24.4329 35.6386 24.2636L35.9061 21.4858C36.152 21.4013 36.4616 21.3146 36.8352 21.2257C37.2086 21.1371 37.5926 21.0735 37.9874 21.0356C38.3821 20.9974 38.7553 21.0019 39.1077 21.0482C39.4596 21.0948 39.7378 21.2068 39.9414 21.3844C40.0517 21.4858 40.1452 21.5957 40.2216 21.7142C40.2978 21.8326 40.3445 21.9552 40.3616 22.082C40.4039 22.4372 40.3489 22.7606 40.1961 23.0524ZM36.3132 17.1352C36.4915 17.0253 36.7058 16.9279 36.9561 16.8433C37.2065 16.7589 37.4633 16.6995 37.7264 16.6657C37.9893 16.6321 38.2461 16.6276 38.4966 16.653C38.7468 16.6785 38.9677 16.7482 39.1586 16.8622C39.3494 16.9765 39.4916 17.1414 39.5849 17.3569C39.6783 17.5727 39.7038 17.8454 39.6613 18.1752C39.6275 18.4373 39.5233 18.6594 39.3495 18.8411C39.1755 19.0231 38.9632 19.1751 38.713 19.2978C38.4627 19.4206 38.1975 19.5177 37.9174 19.5894C37.6372 19.6615 37.3677 19.7144 37.109 19.748C36.8501 19.782 36.6252 19.8032 36.4343 19.8114C36.2433 19.8199 36.118 19.8242 36.0587 19.8242L36.3132 17.1352ZM41.571 21.2575C41.4351 20.9617 41.2526 20.7017 41.0236 20.4773C40.7945 20.2533 40.5226 20.0906 40.2088 19.9891C40.3445 19.8791 40.4782 19.7059 40.6099 19.469C40.7413 19.2324 40.8537 18.9743 40.9471 18.6953C41.0404 18.4161 41.1042 18.1351 41.1381 17.8517C41.1719 17.5685 41.1591 17.3254 41.1 17.1223C40.9555 16.615 40.7286 16.2176 40.4188 15.93C40.1088 15.6426 39.7484 15.4439 39.3367 15.3338C38.9251 15.2242 38.471 15.2007 37.9746 15.2641C37.4782 15.3275 36.9708 15.4523 36.4534 15.6383C36.4534 15.5961 36.4576 15.5517 36.4662 15.5052C36.4744 15.4588 36.4788 15.4101 36.4788 15.3592C36.4788 15.2324 36.4152 15.1226 36.2879 15.0295C36.1606 14.9365 36.0141 14.8816 35.8487 14.8645C35.6832 14.8478 35.5219 14.8836 35.3649 14.9724C35.2077 15.0612 35.0996 15.2242 35.0403 15.4606C34.9723 16.2218 34.9044 17.0125 34.8366 17.8326C34.7686 18.6529 34.6966 19.4817 34.6202 20.3189C34.5438 21.1561 34.4674 21.9869 34.391 22.8113C34.3146 23.6359 34.2382 24.4286 34.1619 25.1895C34.1873 25.4179 34.251 25.5956 34.3529 25.7223C34.4546 25.8493 34.5735 25.9254 34.7094 25.9507C34.845 25.9761 34.9873 25.9526 35.1357 25.8809C35.2842 25.8092 35.4136 25.6842 35.5241 25.5067C35.8634 25.6927 36.2454 25.8133 36.6698 25.8683C37.0941 25.9232 37.5246 25.9232 37.962 25.8683C38.3989 25.8133 38.8296 25.7098 39.254 25.5574C39.6783 25.4053 40.0644 25.215 40.4125 24.9868C40.7603 24.7584 41.0532 24.4982 41.2909 24.2066C41.5284 23.9147 41.6855 23.5998 41.7619 23.2617C41.8382 22.9149 41.8594 22.5683 41.8255 22.2215C41.7916 21.8749 41.7066 21.5537 41.571 21.2575Z" fill="#333533"/>
<path fill-rule="evenodd" clip-rule="evenodd" d="M53.9881 27.9525C53.9414 28.2316 53.8755 28.5254 53.7908 28.8343C53.7058 29.1428 53.6062 29.424 53.4916 29.6778C53.3772 29.9314 53.2497 30.1363 53.1099 30.2929C52.9697 30.4493 52.819 30.5149 52.6578 30.4896C52.5305 30.4724 52.4498 30.3921 52.4161 30.2486C52.3819 30.1046 52.3819 29.927 52.4161 29.7158C52.4498 29.5043 52.5155 29.2653 52.6132 28.999C52.7108 28.7327 52.8297 28.4683 52.9697 28.2064C53.1099 27.944 53.2689 27.6927 53.4471 27.4516C53.6254 27.2107 53.8119 27.0097 54.0071 26.8492C54.0497 26.8998 54.0687 27.0266 54.0645 27.2297C54.06 27.4326 54.0346 27.6737 53.9881 27.9525ZM58.3038 22.4476C58.1891 22.3208 58.0491 22.249 57.8835 22.232C57.7182 22.2151 57.5504 22.3081 57.3808 22.5111C57.2703 22.7139 57.1303 22.9085 56.9605 23.0946C56.7908 23.2807 56.6148 23.4497 56.4323 23.6019C56.2498 23.754 56.0758 23.8853 55.9103 23.9951C55.7449 24.1051 55.6154 24.1854 55.522 24.2361C55.4882 23.9656 55.4689 23.6738 55.4649 23.3609C55.4603 23.048 55.4668 22.731 55.4839 22.4097C55.5093 21.953 55.5623 21.4923 55.643 21.027C55.7236 20.562 55.8404 20.1053 55.9931 19.657C55.9931 19.4204 55.9378 19.2279 55.8276 19.0799C55.7172 18.932 55.5836 18.8388 55.4266 18.8009C55.2694 18.7629 55.1084 18.784 54.9429 18.8642C54.7774 18.9447 54.6352 19.0907 54.5164 19.3018C54.4146 19.581 54.2979 19.8938 54.1664 20.2404C54.0346 20.5873 53.8862 20.9403 53.7208 21.2997C53.5553 21.6593 53.3707 22.008 53.167 22.3461C52.9632 22.6845 52.7405 22.9848 52.4986 23.2468C52.2568 23.5089 51.9936 23.7141 51.7095 23.862C51.4249 24.01 51.1176 24.0755 50.7865 24.0586C50.6335 24.0163 50.5232 23.9022 50.4554 23.716C50.3874 23.5301 50.3472 23.2974 50.3346 23.0185C50.3218 22.7394 50.3346 22.4328 50.3727 22.0988C50.4109 21.7649 50.4618 21.4328 50.5255 21.1032C50.5891 20.7733 50.6592 20.4604 50.7354 20.1645C50.8118 19.8686 50.8839 19.619 50.9519 19.416C51.0537 19.171 51.0537 18.9656 50.9519 18.8009C50.8501 18.6359 50.7101 18.5262 50.5319 18.471C50.3536 18.4161 50.1668 18.4183 49.9717 18.4774C49.7764 18.5366 49.6364 18.6676 49.5516 18.8705C49.4072 19.2174 49.2756 19.6063 49.1569 20.0376C49.038 20.4688 48.9426 20.9151 48.8706 21.3758C48.7982 21.8368 48.7579 22.2934 48.7494 22.7458C48.749 22.7753 48.7504 22.8032 48.7503 22.8326C48.5651 23.3241 48.3888 23.6958 48.2214 23.9444C48.0049 24.2659 47.7607 24.4054 47.4893 24.3629C47.3702 24.3122 47.2921 24.194 47.2539 24.0078C47.2154 23.8219 47.2027 23.5936 47.2154 23.3227C47.2284 23.0524 47.2602 22.7458 47.3109 22.4032C47.3621 22.0608 47.4254 21.7056 47.5018 21.3377C47.5784 20.9697 47.659 20.6001 47.7437 20.2279C47.8286 19.8559 47.9049 19.5049 47.9731 19.175C47.9645 18.8791 47.8775 18.653 47.712 18.4964C47.5466 18.3401 47.3151 18.2788 47.0183 18.3125C46.8146 18.3971 46.6638 18.5072 46.5663 18.6423C46.4686 18.7775 46.39 18.951 46.3308 19.1623C46.2967 19.2724 46.2458 19.4921 46.178 19.8221C46.11 20.1516 46.0231 20.5303 45.917 20.9572C45.8109 21.3844 45.6857 21.8303 45.5415 22.2954C45.3971 22.7605 45.236 23.1814 45.0578 23.5575C44.8795 23.9337 44.6843 24.2361 44.4722 24.4644C44.26 24.6927 44.0308 24.7858 43.7847 24.7435C43.6489 24.7181 43.562 24.5785 43.5239 24.325C43.4856 24.0712 43.4793 23.7585 43.5046 23.3863C43.5302 23.0142 43.581 22.6062 43.6574 22.1623C43.7338 21.7183 43.8121 21.2977 43.8929 20.9C43.9735 20.5028 44.0478 20.1516 44.1158 19.8473C44.1836 19.5428 44.2303 19.3399 44.2558 19.2386C44.2558 18.9933 44.2004 18.7968 44.0902 18.6486C43.9798 18.5009 43.8462 18.4077 43.6892 18.3696C43.5321 18.3316 43.3709 18.3527 43.2055 18.433C43.04 18.5134 42.8979 18.6594 42.779 18.8705C42.7365 19.0989 42.6813 19.3632 42.6135 19.6634C42.5455 19.9635 42.4799 20.2721 42.4163 20.5893C42.3526 20.9065 42.293 21.2172 42.238 21.5217C42.1827 21.8262 42.1425 22.0925 42.117 22.3208C42.1 22.4983 42.0808 22.7162 42.0598 22.974C42.0385 23.2321 42.0278 23.5047 42.0278 23.7921C42.0278 24.0798 42.049 24.3652 42.0917 24.6484C42.134 24.9318 42.2104 25.1918 42.3207 25.4284C42.431 25.6653 42.5859 25.8596 42.7855 26.0119C42.9848 26.1641 43.2374 26.2486 43.5429 26.2657C43.8567 26.2824 44.1305 26.2594 44.364 26.1958C44.5973 26.1324 44.8094 26.033 45.0005 25.8976C45.1914 25.7626 45.3653 25.6018 45.5224 25.4157C45.6793 25.2298 45.8343 25.0269 45.9871 24.8069C46.1313 25.1284 46.318 25.3777 46.5472 25.5553C46.7763 25.7329 47.0183 25.8387 47.2728 25.8723C47.5274 25.9059 47.7864 25.8704 48.0495 25.7645C48.3124 25.6589 48.55 25.4792 48.7624 25.2255C48.902 25.0699 49.0339 24.893 49.1576 24.6975C49.2101 24.7891 49.2659 24.8774 49.3288 24.959C49.5368 25.2298 49.8191 25.4157 50.1755 25.5172C50.5573 25.6187 50.9306 25.6358 51.2957 25.5681C51.6605 25.5005 52.0086 25.3777 52.3395 25.2002C52.6705 25.0225 52.9781 24.8091 53.2625 24.5595C53.5467 24.3101 53.795 24.0503 54.0071 23.7794C53.9986 23.974 53.9944 24.158 53.9944 24.3312C53.9944 24.5047 53.9902 24.6927 53.9818 24.8957C53.5572 25.1918 53.1564 25.547 52.7788 25.9612C52.401 26.3754 52.0699 26.8172 51.7857 27.2867C51.5015 27.7559 51.2786 28.2316 51.1176 28.7136C50.9562 29.1959 50.8776 29.6459 50.8819 30.0646C50.8861 30.4832 50.9857 30.8488 51.181 31.1617C51.3761 31.4746 51.6944 31.6986 52.1359 31.8339C52.5942 31.9779 52.9971 31.9819 53.3453 31.8467C53.6932 31.7114 53.9965 31.4872 54.2554 31.1743C54.5143 30.8615 54.7264 30.4832 54.892 30.0392C55.0574 29.5952 55.189 29.1323 55.2866 28.6503C55.3842 28.1683 55.4457 27.6944 55.4712 27.2297C55.4967 26.7645 55.4967 26.35 55.4712 25.9864C56.201 25.6822 56.7992 25.2974 57.2661 24.8321C57.7329 24.3674 58.119 23.8768 58.4246 23.3609C58.5179 23.2341 58.5497 23.0818 58.5202 22.9043C58.4903 22.7267 58.4183 22.5744 58.3038 22.4476Z" fill="#333533"/>
<path fill-rule="evenodd" clip-rule="evenodd" d="M74.3644 21.6392C74.3897 21.4448 74.4281 21.2396 74.4788 21.024C74.5301 20.8084 74.5938 20.599 74.6699 20.3961C74.7466 20.1931 74.8356 20.0178 74.937 19.8697C75.0391 19.7218 75.1476 19.6161 75.262 19.5525C75.3764 19.4893 75.4928 19.4956 75.6124 19.5716C75.7391 19.6478 75.8178 19.8084 75.8477 20.0535C75.8769 20.299 75.8477 20.561 75.7586 20.8401C75.6696 21.1193 75.5103 21.3812 75.2809 21.6265C75.0521 21.8719 74.742 22.0323 74.352 22.1084C74.3345 21.9903 74.339 21.8337 74.3644 21.6392ZM78.7753 22.1591C78.6355 22.1171 78.5016 22.1128 78.3742 22.1466C78.2475 22.1804 78.1662 22.2692 78.1324 22.4131C78.0648 22.6836 77.9563 22.9605 77.8081 23.2437C77.6592 23.5271 77.4772 23.7955 77.2608 24.0493C77.0443 24.3029 76.7999 24.5271 76.5289 24.7215C76.2572 24.9161 75.9725 25.0555 75.6754 25.14C75.3784 25.2332 75.1327 25.2436 74.937 25.1718C74.742 25.1001 74.5873 24.9773 74.4729 24.8041C74.3579 24.6307 74.2753 24.4213 74.2246 24.1761C74.1733 23.9308 74.144 23.6773 74.1356 23.4149C74.6192 23.4489 75.0495 23.3624 75.4278 23.1549C75.8048 22.948 76.1252 22.673 76.3885 22.3305C76.6517 21.9881 76.8513 21.6033 76.9871 21.1762C77.1223 20.7493 77.199 20.3243 77.2159 19.9014C77.2244 19.504 77.1652 19.168 77.0378 18.8931C76.9104 18.6184 76.7388 18.4045 76.5224 18.2524C76.3059 18.1002 76.0576 18.0114 75.7775 17.9861C75.4973 17.9607 75.2133 17.9989 74.9247 18.1002C74.5763 18.2186 74.2818 18.411 74.04 18.6775C73.7982 18.9438 73.5961 19.2526 73.4355 19.6034C73.2737 19.9543 73.1463 20.3327 73.0533 20.7385C72.9597 21.1446 72.892 21.5441 72.8496 21.9374C72.8113 22.2903 72.791 22.6277 72.7837 22.9534C72.7657 22.9948 72.748 23.0346 72.7287 23.0788C72.597 23.3793 72.4441 23.6731 72.2703 23.9605C72.0964 24.248 71.9032 24.4891 71.6911 24.6835C71.4789 24.878 71.2583 24.9456 71.0292 24.8864C70.8933 24.8528 70.8192 24.696 70.8064 24.4172C70.7937 24.138 70.8084 23.7914 70.8509 23.377C70.8933 22.9628 70.9421 22.5143 70.9973 22.0323C71.0524 21.5503 71.08 21.0896 71.08 20.6498C71.08 20.2693 71.0079 19.9036 70.8636 19.5525C70.7193 19.2019 70.5219 18.91 70.2717 18.6775C70.0212 18.4448 69.7307 18.2905 69.3998 18.2145C69.0687 18.1382 68.7123 18.1891 68.3304 18.3666C67.9483 18.5442 67.645 18.7936 67.4202 19.115C67.1951 19.4365 66.9893 19.7746 66.8028 20.1298C66.7346 19.8591 66.6352 19.6078 66.5036 19.3751C66.3719 19.1425 66.2109 18.9396 66.0198 18.7661C65.8288 18.593 65.6143 18.4576 65.377 18.3603C65.1393 18.2632 64.8888 18.2145 64.6257 18.2145C64.3712 18.2145 64.1357 18.2632 63.9194 18.3603C63.7029 18.4576 63.5056 18.5822 63.3273 18.7344C63.1491 18.8868 62.988 19.0579 62.8435 19.2482C62.6993 19.4384 62.5718 19.6267 62.4617 19.8126C62.4445 19.5927 62.4254 19.4005 62.4044 19.2354C62.3831 19.0706 62.3449 18.931 62.2897 18.817C62.2346 18.7027 62.1562 18.6161 62.0543 18.5569C61.9524 18.4979 61.8082 18.4681 61.6216 18.4681C61.5281 18.4681 61.4346 18.4871 61.3414 18.5251C61.2479 18.5632 61.165 18.6161 61.0932 18.6837C61.021 18.7516 60.966 18.8339 60.9278 18.931C60.8894 19.0283 60.879 19.1404 60.8958 19.2672C60.9042 19.3604 60.9278 19.4722 60.9659 19.6034C61.004 19.7346 61.04 19.9059 61.0741 20.117C61.1079 20.3285 61.1355 20.5844 61.1568 20.8845C61.178 21.1848 61.1843 21.5526 61.1759 21.9881C61.1673 22.4237 61.1355 22.933 61.0804 23.5165C61.025 24.1 60.9381 24.7765 60.8194 25.5459C60.8025 25.7235 60.8703 25.8674 61.0233 25.9773C61.1759 26.087 61.3498 26.1505 61.5451 26.1675C61.7402 26.1844 61.9249 26.1505 62.0988 26.0661C62.2728 25.9813 62.3726 25.8335 62.398 25.6221C62.4235 25.2247 62.4723 24.8019 62.5445 24.3536C62.6165 23.9056 62.7056 23.4616 62.8118 23.0218C62.9178 22.5822 63.0387 22.1636 63.1746 21.766C63.3103 21.3685 63.461 21.0177 63.6265 20.7133C63.7921 20.4088 63.9639 20.1658 64.142 19.984C64.3203 19.8021 64.5069 19.7112 64.7023 19.7112C64.9399 19.7112 65.1243 19.8189 65.2561 20.0345C65.3874 20.2503 65.4807 20.5274 65.5361 20.8653C65.5912 21.2038 65.6166 21.5739 65.6125 21.9754C65.608 22.377 65.5912 22.7639 65.5615 23.1359C65.5317 23.5081 65.4979 23.84 65.4596 24.1317C65.4214 24.4235 65.3938 24.6245 65.377 24.7342C65.377 24.9287 65.4511 25.0829 65.5996 25.1972C65.748 25.3112 65.9136 25.379 66.0962 25.4001C66.2787 25.4213 66.4504 25.3874 66.6117 25.2985C66.7729 25.2097 66.8663 25.0599 66.8918 24.8483C66.9766 24.2395 67.0933 23.6287 67.2418 23.0156C67.3902 22.4024 67.5601 21.8529 67.7512 21.3666C67.942 20.8803 68.1541 20.4829 68.3877 20.1742C68.621 19.8657 68.8692 19.7112 69.1325 19.7112C69.2679 19.7112 69.3721 19.8044 69.4442 19.9902C69.5162 20.1762 69.5524 20.4299 69.5524 20.7512C69.5524 20.9881 69.5333 21.2313 69.4952 21.4807C69.4569 21.7301 69.4125 21.9881 69.3615 22.2544C69.3106 22.5209 69.2661 22.7935 69.2278 23.0725C69.1896 23.3517 69.1706 23.6433 69.1706 23.9477C69.1706 24.1592 69.1918 24.4044 69.2342 24.6835C69.2765 24.9624 69.3571 25.2269 69.476 25.4762C69.5948 25.7258 69.7581 25.9371 69.9663 26.1104C70.1742 26.2837 70.4392 26.3704 70.7617 26.3704C71.2456 26.3704 71.674 26.2668 72.0476 26.0597C72.421 25.8526 72.7414 25.5821 73.0087 25.248C73.0226 25.2305 73.0352 25.2118 73.0487 25.1944C73.0689 25.2438 73.0871 25.2961 73.1105 25.3431C73.2932 25.7152 73.5408 26.0026 73.8554 26.2056C74.1694 26.4086 74.5386 26.5206 74.963 26.5418C75.3868 26.5627 75.8496 26.4845 76.3508 26.307C76.7239 26.1717 77.0482 26.0026 77.3245 25.7997C77.6001 25.5967 77.8484 25.3494 78.0687 25.0576C78.2897 24.7659 78.4912 24.4297 78.6739 24.0493C78.8565 23.6686 79.0405 23.2333 79.227 22.7426C79.2615 22.6076 79.2296 22.4871 79.1321 22.3812C79.0346 22.2756 78.9157 22.2016 78.7753 22.1591Z" fill="#333533"/>
<path fill-rule="evenodd" clip-rule="evenodd" d="M85.6914 20.7439C85.6491 20.9934 85.5919 21.2684 85.5198 21.5684C85.447 21.8687 85.356 22.1794 85.2461 22.5008C85.1356 22.8221 84.9998 23.1118 84.8386 23.3696C84.6774 23.6277 84.4928 23.8326 84.2848 23.9848C84.0768 24.137 83.8369 24.2005 83.5652 24.175C83.4294 24.1583 83.3254 24.0653 83.2539 23.896C83.1817 23.727 83.1434 23.5112 83.1388 23.2491C83.1349 22.9871 83.1577 22.6995 83.209 22.3866C83.2597 22.0739 83.3384 21.7672 83.445 21.4669C83.5503 21.1669 83.6803 20.8898 83.833 20.6361C83.9858 20.3824 84.1613 20.1858 84.3615 20.0462C84.5604 19.9068 84.7794 19.8414 85.0167 19.8496C85.2546 19.8581 85.5087 19.9764 85.7804 20.2048C85.7635 20.3148 85.7343 20.4946 85.6914 20.7439ZM90.2167 21.7142C90.0854 21.6466 89.9495 21.632 89.8098 21.6699C89.67 21.708 89.5699 21.837 89.5108 22.0568C89.4763 22.2937 89.4003 22.5725 89.2813 22.8939C89.1624 23.2153 89.0161 23.5199 88.8419 23.8071C88.6684 24.0947 88.4688 24.3337 88.2439 24.5239C88.019 24.7143 87.7792 24.801 87.525 24.7838C87.3125 24.7671 87.1636 24.6592 87.0791 24.4605C86.994 24.2618 86.9498 24.0125 86.9452 23.712C86.9413 23.4121 86.9712 23.0738 87.0343 22.6975C87.098 22.3212 87.1747 21.947 87.2637 21.5747C87.3528 21.2028 87.4438 20.8454 87.5374 20.5029C87.6303 20.1605 87.707 19.8709 87.7668 19.6341C87.8344 19.4227 87.813 19.2431 87.7031 19.0949C87.5926 18.9472 87.4548 18.8413 87.2891 18.7779C87.1233 18.7145 86.9556 18.6976 86.786 18.7272C86.6163 18.7568 86.5065 18.8477 86.4551 18.9998C85.9546 18.5685 85.473 18.336 85.0102 18.3022C84.548 18.2684 84.121 18.37 83.731 18.6067C83.3403 18.8434 82.9945 19.1858 82.6936 19.6341C82.392 20.0825 82.1482 20.5707 81.9617 21.0992C81.7745 21.6276 81.6581 22.1669 81.6113 22.7164C81.5645 23.2661 81.6009 23.7672 81.7199 24.2196C81.8388 24.6719 82.0481 25.0421 82.3497 25.3293C82.6507 25.6169 83.0602 25.7607 83.5782 25.7607C83.8077 25.7607 84.028 25.7142 84.2399 25.6212C84.4525 25.528 84.6475 25.4181 84.8256 25.2913C85.0037 25.1645 85.161 25.0313 85.2968 24.8917C85.4327 24.7522 85.5386 24.636 85.6153 24.5429C85.6745 24.8473 85.772 25.1055 85.9078 25.3168C86.0437 25.528 86.1984 25.7016 86.3726 25.8367C86.5461 25.9718 86.7288 26.0713 86.9199 26.1349C87.111 26.1983 87.2956 26.23 87.4737 26.23C87.8728 26.23 88.2459 26.0946 88.5943 25.824C88.942 25.5536 89.254 25.2215 89.5296 24.8284C89.8052 24.435 90.0327 24.0209 90.2108 23.5852C90.3889 23.1498 90.5079 22.7629 90.567 22.4245C90.6268 22.2977 90.6158 22.1647 90.5352 22.0251C90.4546 21.8856 90.3486 21.7821 90.2167 21.7142Z" fill="#333533"/>
<path fill-rule="evenodd" clip-rule="evenodd" d="M113.137 28.719C113.065 29.0065 112.952 29.2498 112.799 29.4483C112.647 29.6471 112.456 29.7507 112.226 29.7592C112.082 29.7676 111.972 29.6915 111.895 29.5309C111.819 29.3702 111.766 29.1631 111.737 28.9094C111.707 28.6557 111.694 28.3723 111.698 28.0594C111.702 27.7466 111.715 27.438 111.737 27.1335C111.758 26.8292 111.783 26.5456 111.813 26.2837C111.843 26.0214 111.865 25.8188 111.883 25.6749C112.171 25.7087 112.411 25.8332 112.602 26.049C112.793 26.2647 112.939 26.5204 113.041 26.8165C113.143 27.1124 113.202 27.4317 113.219 27.7741C113.236 28.1166 113.209 28.4315 113.137 28.719ZM108.528 28.719C108.456 29.0065 108.344 29.2498 108.191 29.4483C108.038 29.6471 107.847 29.7507 107.618 29.7592C107.474 29.7676 107.364 29.6915 107.287 29.5309C107.211 29.3702 107.157 29.1631 107.128 28.9094C107.098 28.6557 107.085 28.3723 107.09 28.0594C107.094 27.7466 107.107 27.438 107.128 27.1335C107.149 26.8292 107.174 26.5456 107.204 26.2837C107.234 26.0214 107.258 25.8188 107.274 25.6749C107.563 25.7087 107.803 25.8332 107.993 26.049C108.184 26.2647 108.331 26.5204 108.433 26.8165C108.535 27.1124 108.594 27.4317 108.611 27.7741C108.628 28.1166 108.6 28.4315 108.528 28.719ZM103.799 21.5144C103.79 21.7172 103.772 21.897 103.742 22.0534C103.712 22.2101 103.671 22.3093 103.621 22.3516C103.527 22.3008 103.413 22.1699 103.277 21.9583C103.141 21.747 103.035 21.5079 102.958 21.2416C102.882 20.9752 102.859 20.7133 102.889 20.4551C102.918 20.1974 103.052 19.9967 103.29 19.8527C103.383 19.802 103.464 19.8209 103.532 19.9098C103.599 19.9986 103.655 20.1275 103.697 20.2966C103.74 20.4659 103.769 20.6603 103.787 20.8801C103.803 21.1001 103.807 21.3114 103.799 21.5144ZM102.672 24.045C102.54 24.1843 102.394 24.3048 102.233 24.4064C102.072 24.5079 101.906 24.584 101.737 24.6347C101.567 24.6856 101.414 24.6981 101.278 24.6727C100.897 24.5967 100.603 24.4316 100.4 24.178C100.197 23.9245 100.067 23.6264 100.012 23.2839C99.9567 22.9414 99.9626 22.5756 100.031 22.1866C100.098 21.7977 100.213 21.4363 100.375 21.1022C100.536 20.7681 100.731 20.4806 100.96 20.2397C101.189 19.9986 101.439 19.8486 101.711 19.7892C101.609 20.2205 101.575 20.6667 101.609 21.1274C101.643 21.5884 101.754 22.0217 101.941 22.4276C102.059 22.6731 102.201 22.8969 102.367 23.0999C102.532 23.3029 102.734 23.4763 102.971 23.62C102.904 23.7638 102.804 23.9054 102.672 24.045ZM116.759 21.6413C116.784 21.4469 116.822 21.2416 116.873 21.0259C116.924 20.8104 116.987 20.6011 117.064 20.3982C117.14 20.1951 117.229 20.0197 117.331 19.8718C117.433 19.7239 117.541 19.618 117.656 19.5546C117.771 19.4912 117.887 19.4975 118.006 19.5736C118.133 19.6499 118.212 19.8105 118.241 20.0556C118.271 20.301 118.241 20.563 118.152 20.8422C118.063 21.1212 117.904 21.3833 117.675 21.6284C117.446 21.874 117.136 22.0344 116.746 22.1105C116.729 21.9923 116.733 21.8358 116.759 21.6413ZM121.889 21.6413C121.914 21.4469 121.952 21.2416 122.003 21.0259C122.054 20.8104 122.118 20.6011 122.195 20.3982C122.271 20.1951 122.36 20.0197 122.462 19.8718C122.564 19.7239 122.672 19.618 122.786 19.5546C122.901 19.4912 123.017 19.4975 123.136 19.5736C123.264 19.6499 123.342 19.8105 123.372 20.0556C123.402 20.301 123.372 20.563 123.283 20.8422C123.194 21.1212 123.034 21.3833 122.806 21.6284C122.576 21.874 122.266 22.0344 121.876 22.1105C121.859 21.9923 121.863 21.8358 121.889 21.6413ZM126.656 22.3833C126.559 22.2777 126.44 22.2037 126.3 22.1612C126.16 22.1191 126.026 22.1149 125.899 22.1487C125.771 22.1825 125.691 22.2713 125.657 22.415C125.589 22.6857 125.481 22.9626 125.332 23.2457C125.184 23.5292 125.001 23.7976 124.785 24.0512C124.568 24.3048 124.325 24.5291 124.053 24.7236C123.781 24.9181 123.497 25.0576 123.2 25.142C122.903 25.2353 122.657 25.2458 122.462 25.1738C122.266 25.1021 122.111 24.9794 121.997 24.8061C121.883 24.6326 121.8 24.4235 121.749 24.178C121.698 23.933 121.668 23.6793 121.66 23.4171C122.143 23.451 122.574 23.3644 122.952 23.157C123.329 22.9499 123.65 22.6749 123.913 22.3324C124.176 21.9902 124.375 21.6054 124.511 21.1783C124.647 20.7512 124.723 20.3264 124.741 19.9035C124.748 19.506 124.689 19.1698 124.562 18.895C124.435 18.6203 124.263 18.4066 124.046 18.2546C123.83 18.1021 123.582 18.0135 123.301 17.9881C123.022 17.9627 122.737 18.0009 122.449 18.1021C122.101 18.2208 121.806 18.413 121.564 18.6794C121.322 18.9458 121.121 19.2547 120.96 19.6053C120.798 19.9565 120.671 20.3346 120.577 20.7406C120.484 21.1465 120.416 21.5462 120.374 21.9393C120.333 22.3208 120.31 22.686 120.305 23.0355C120.273 23.1052 120.239 23.1752 120.202 23.2457C120.053 23.5292 119.871 23.7976 119.654 24.0512C119.439 24.3048 119.194 24.5291 118.922 24.7236C118.651 24.9181 118.367 25.0576 118.07 25.142C117.773 25.2353 117.526 25.2458 117.331 25.1738C117.136 25.1021 116.981 24.9794 116.867 24.8061C116.752 24.6326 116.67 24.4235 116.618 24.178C116.567 23.933 116.538 23.6793 116.529 23.4171C117.013 23.451 117.444 23.3644 117.821 23.157C118.199 22.9499 118.519 22.6749 118.783 22.3324C119.045 21.9902 119.245 21.6054 119.381 21.1783C119.517 20.7512 119.593 20.3264 119.61 19.9035C119.619 19.506 119.559 19.1698 119.432 18.895C119.305 18.6203 119.132 18.4066 118.916 18.2546C118.7 18.1021 118.451 18.0135 118.172 17.9881C117.892 17.9627 117.607 18.0009 117.318 18.1021C116.97 18.2208 116.675 18.413 116.434 18.6794C116.192 18.9458 115.99 19.2547 115.829 19.6053C115.668 19.9565 115.541 20.3346 115.448 20.7406C115.354 21.1465 115.286 21.5462 115.243 21.9393C115.219 22.1611 115.203 22.376 115.191 22.5871C115.11 22.6567 115.03 22.7267 114.944 22.7954C114.652 23.0323 114.344 23.2457 114.021 23.436C113.698 23.6264 113.364 23.7828 113.016 23.9054C112.667 24.0281 112.311 24.1021 111.947 24.1273L112.736 15.7049C112.786 15.5272 112.761 15.371 112.66 15.2357C112.558 15.1003 112.426 15.0074 112.265 14.9567C112.103 14.9058 111.932 14.9101 111.749 14.9692C111.566 15.0286 111.416 15.1639 111.297 15.375C111.237 15.6966 111.176 16.1362 111.113 16.6942C111.049 17.2523 110.985 17.8613 110.922 18.5209C110.858 19.1805 110.794 19.8612 110.731 20.563C110.667 21.265 110.612 21.9203 110.565 22.5291C110.563 22.5561 110.561 22.5806 110.559 22.6073C110.485 22.67 110.413 22.7333 110.336 22.7954C110.043 23.0323 109.735 23.2457 109.413 23.436C109.091 23.6264 108.755 23.7828 108.407 23.9054C108.059 24.0281 107.703 24.1021 107.338 24.1273L108.127 15.7049C108.179 15.5272 108.153 15.371 108.051 15.2357C107.949 15.1003 107.817 15.0074 107.656 14.9567C107.495 14.9058 107.323 14.9101 107.141 14.9692C106.958 15.0286 106.808 15.1639 106.689 15.375C106.63 15.6966 106.568 16.1362 106.504 16.6942C106.441 17.2523 106.377 17.8613 106.313 18.5209C106.249 19.1805 106.186 19.8612 106.122 20.563C106.059 21.265 106.003 21.9203 105.957 22.5291C105.956 22.5413 105.955 22.5524 105.954 22.5647C105.82 22.6263 105.675 22.6804 105.517 22.7257C105.356 22.7724 105.174 22.7999 104.97 22.8083C105.004 22.6559 105.031 22.4868 105.053 22.3008C105.074 22.1149 105.091 21.9203 105.104 21.7172C105.116 21.5144 105.121 21.3114 105.116 21.1085C105.112 20.9054 105.101 20.7195 105.085 20.5502C105.042 20.1869 104.964 19.8422 104.849 19.5165C104.735 19.1911 104.58 18.9185 104.385 18.6984C104.19 18.4786 103.946 18.3305 103.653 18.2546C103.36 18.1785 103.018 18.2037 102.628 18.3305C102.05 18.2546 101.531 18.3075 101.068 18.4892C100.606 18.6712 100.205 18.9352 99.8651 19.2819C99.5258 19.6288 99.2483 20.0366 99.0318 20.506C98.8154 20.9752 98.671 21.4574 98.5989 21.9518C98.5683 22.1615 98.5534 22.3702 98.5489 22.5785C98.4176 22.8466 98.2733 23.0809 98.1147 23.2775C97.8904 23.5566 97.657 23.7849 97.4146 23.9624C97.1728 24.1401 96.933 24.2754 96.6957 24.3684C96.4578 24.4615 96.2459 24.525 96.0594 24.5586C95.8384 24.6009 95.6265 24.6053 95.4224 24.5713C95.2189 24.5377 95.0317 24.4404 94.8627 24.2795C94.7268 24.1613 94.6229 23.9709 94.5507 23.7088C94.4786 23.4466 94.4363 23.1488 94.4233 22.8146C94.4103 22.4805 94.4233 22.1316 94.4616 21.7681C94.5 21.4046 94.565 21.0599 94.6586 20.7343C94.7522 20.4088 94.8705 20.117 95.0154 19.8589C95.1591 19.6013 95.3288 19.4172 95.5244 19.3073C95.6343 19.3243 95.7025 19.3897 95.7279 19.5038C95.7539 19.618 95.7597 19.7533 95.7474 19.9098C95.7344 20.0664 95.7155 20.2269 95.6901 20.3917C95.6641 20.5567 95.6518 20.6943 95.6518 20.804C95.6941 21.0323 95.7766 21.21 95.9001 21.3368C96.023 21.4636 96.1607 21.5378 96.3135 21.5587C96.4662 21.58 96.617 21.5441 96.7659 21.4509C96.9141 21.3581 97.035 21.21 97.1286 21.0069C97.1371 21.0154 97.1494 21.0197 97.1663 21.0197L97.345 19.4088C97.3957 19.1889 97.362 18.9945 97.243 18.8253C97.1241 18.6562 96.9674 18.5588 96.7717 18.5336C96.526 18.1785 96.1926 17.9903 95.7727 17.9691C95.3528 17.948 94.9219 18.0854 94.4805 18.3814C94.2088 18.5761 93.9689 18.8443 93.7616 19.1867C93.5529 19.5293 93.3833 19.9098 93.252 20.3283C93.1201 20.7469 93.0271 21.1889 92.9719 21.654C92.9166 22.1191 92.9062 22.5715 92.94 23.011C92.9738 23.451 93.0524 23.8654 93.1759 24.2541C93.2988 24.6433 93.4704 24.9688 93.6914 25.2308C93.8779 25.4591 94.0899 25.6263 94.3278 25.732C94.565 25.8378 94.8133 25.9031 95.0726 25.9285C95.3313 25.9538 95.5881 25.9432 95.8429 25.8968C96.097 25.8505 96.3395 25.785 96.5683 25.7002C96.8654 25.5905 97.1708 25.4508 97.4848 25.2817C97.7987 25.1127 98.1004 24.9096 98.389 24.6727C98.5404 24.5481 98.6867 24.4123 98.8277 24.2667C98.8921 24.4257 98.9642 24.5795 99.0507 24.7236C99.2801 25.1039 99.5895 25.4128 99.9801 25.6495C100.37 25.8862 100.85 26.0002 101.419 25.9919C102.03 25.9834 102.594 25.8292 103.112 25.529C103.629 25.229 104.054 24.7868 104.385 24.2034C104.881 24.2034 105.368 24.1221 105.848 23.9603C105.844 24.0115 105.84 24.0654 105.836 24.1148C105.802 24.5629 105.785 24.8673 105.785 25.028C105.777 25.3071 105.757 25.6516 105.727 26.0616C105.698 26.4718 105.679 26.9031 105.67 27.3554C105.662 27.8077 105.679 28.2644 105.722 28.7255C105.764 29.1862 105.853 29.6049 105.989 29.9813C106.125 30.3574 106.318 30.6767 106.568 30.9389C106.818 31.2009 107.147 31.3575 107.555 31.4082C107.988 31.4672 108.361 31.3911 108.675 31.1799C108.989 30.9684 109.243 30.6789 109.439 30.311C109.634 29.943 109.772 29.5182 109.852 29.0362C109.933 28.5543 109.956 28.0701 109.923 27.5838C109.888 27.0974 109.799 26.6389 109.655 26.2077C109.51 25.7763 109.311 25.4211 109.057 25.142C109.21 25.1 109.392 25.0196 109.604 24.9011C109.816 24.7828 110.034 24.6495 110.26 24.5015C110.315 24.4651 110.37 24.4268 110.424 24.3895C110.404 24.6891 110.393 24.9028 110.393 25.028C110.385 25.3071 110.366 25.6516 110.336 26.0616C110.307 26.4718 110.287 26.9031 110.279 27.3554C110.27 27.8077 110.287 28.2644 110.329 28.7255C110.372 29.1862 110.461 29.6049 110.597 29.9813C110.732 30.3574 110.926 30.6767 111.176 30.9389C111.427 31.2009 111.756 31.3575 112.163 31.4082C112.595 31.4672 112.969 31.3911 113.283 31.1799C113.597 30.9684 113.852 30.6789 114.047 30.311C114.242 29.943 114.38 29.5182 114.461 29.0362C114.541 28.5543 114.564 28.0701 114.53 27.5838C114.497 27.0974 114.408 26.6389 114.263 26.2077C114.119 25.7763 113.919 25.4211 113.665 25.142C113.818 25.1 114 25.0196 114.213 24.9011C114.424 24.7828 114.643 24.6495 114.868 24.5015C114.985 24.4246 115.101 24.3453 115.217 24.2636C115.261 24.6772 115.355 25.0399 115.504 25.345C115.687 25.7172 115.935 26.0046 116.249 26.2077C116.563 26.4105 116.932 26.5226 117.357 26.5438C117.781 26.5646 118.243 26.4866 118.744 26.309C119.117 26.1738 119.442 26.0046 119.718 25.8017C119.994 25.5987 120.242 25.3513 120.463 25.0597C120.476 25.0428 120.488 25.0244 120.5 25.0074C120.54 25.1258 120.583 25.2396 120.635 25.345C120.817 25.7172 121.065 26.0046 121.379 26.2077C121.693 26.4105 122.063 26.5226 122.487 26.5438C122.912 26.5646 123.374 26.4866 123.875 26.309C124.248 26.1738 124.573 26.0046 124.849 25.8017C125.124 25.5987 125.372 25.3513 125.593 25.0597C125.814 24.7678 126.015 24.4316 126.198 24.0512C126.381 23.6706 126.565 23.2354 126.752 22.7447C126.785 22.6096 126.754 22.489 126.656 22.3833Z" fill="#333533"/>
</g>
<defs>
<clipPath id="clip0_171_774">
<rect width="118.95" height="26" fill="white" transform="translate(8.05005 8)"/>
</clipPath>
</defs>
</svg>
